<svg xmlns="http://www.w3.org/2000/svg" version="1.1" xmlns:xlink="http://www.w3.org/1999/xlink" xmlns:svgjs="http://svgjs.dev/svgjs" width="1500" height="1500" viewBox="0 0 1500 1500"><rect width="1500" height="1500" fill="#ffffff"></rect><g transform="matrix(0.6666666666666666,0,0,0.6666666666666666,248.8395102040816,242.36774193548388)"><svg viewBox="0 0 245 248" data-background-color="#ffffff" preserveAspectRatio="xMidYMid meet" height="1518" width="1500" xmlns="http://www.w3.org/2000/svg" xmlns:xlink="http://www.w3.org/1999/xlink"><g id="tight-bounds" transform="matrix(1,0,0,1,0.2843200000000081,0.4000000000000057)"><svg viewBox="0 0 244.43135999999998 247.2" height="247.2" width="244.43135999999998"><g><svg></svg></g><g><svg viewBox="0 0 244.43135999999998 247.2" height="247.2" width="244.43135999999998"><g transform="matrix(1,0,0,1,0,78.72733829678735)"><svg viewBox="0 0 244.43135999999998 89.74532340642529" height="89.74532340642529" width="244.43135999999998"><g><svg viewBox="0 0 244.43135999999998 89.74532340642529" height="89.74532340642529" width="244.43135999999998"><g><svg viewBox="0 0 244.43135999999998 89.74532340642529" height="89.74532340642529" width="244.43135999999998"><g><svg viewBox="0 0 244.43135999999998 89.74532340642529" height="89.74532340642529" width="244.43135999999998"><g id="textblocktransform"><svg viewBox="0 0 244.43135999999998 89.74532340642529" height="89.74532340642529" width="244.43135999999998" id="textblock"><g><svg viewBox="0 0 244.43135999999998 89.74532340642529" height="89.74532340642529" width="244.43135999999998"><g transform="matrix(1,0,0,1,0,0)"><svg width="244.43135999999998" viewBox="4.05 -35.45 98.04 36" height="89.74532340642529" data-palette-color="#1e55b3"><path d="M23.25 0L4.05 0 4.05-34.85 22.25-34.85 22.25-29.4 10.3-29.4 10.3-21.25 19.8-21.25 19.8-15.95 10.3-15.95 10.3-5.65 23.25-5.65 23.25 0ZM31.45 0L24.45 0 39.2-35.45 39.7-35.45 54.5 0 47.7 0 45.75-5.05 33.3-5.05 31.45 0ZM39.4-22.2L38.6-19.4 35.1-9.9 43.9-9.9 40.25-19.4 39.4-22.2ZM66.34 0.55L66.34 0.55Q62.67 0.55 59.92-0.68 57.17-1.9 55.9-3.25L55.9-3.25 58.45-8.5Q58.97-7.83 60.11-6.98 61.25-6.13 62.76-5.49 64.27-4.85 65.9-4.85L65.9-4.85Q67.77-4.85 69.16-5.9 70.55-6.95 70.55-9L70.55-9Q70.55-11.03 69.11-12.21 67.67-13.4 65.2-14.9L65.2-14.9Q63.17-16.13 61.22-17.51 59.27-18.9 57.98-20.91 56.7-22.93 56.7-26L56.7-26Q56.7-30.13 59.33-32.79 61.97-35.45 67-35.45L67-35.45Q69.55-35.45 71.33-34.85 73.12-34.25 74.23-33.48 75.34-32.7 75.9-32.2L75.9-32.2 73.09-27.1Q72.75-27.6 71.92-28.33 71.09-29.05 69.9-29.6 68.7-30.15 67.25-30.15L67.25-30.15Q65.22-30.15 64.21-28.99 63.2-27.83 63.2-26.25L63.2-26.25Q63.2-24.23 64.68-22.95 66.17-21.68 68.3-20.4L68.3-20.4Q70.65-19 72.65-17.59 74.65-16.18 75.87-14.21 77.09-12.25 77.09-9.2L77.09-9.2Q77.09-4.63 74.22-2.04 71.34 0.55 66.34 0.55ZM102.09 0L82.89 0 82.89-34.85 101.09-34.85 101.09-29.4 89.14-29.4 89.14-21.25 98.64-21.25 98.64-15.95 89.14-15.95 89.14-5.65 102.09-5.65 102.09 0Z" opacity="1" transform="matrix(1,0,0,1,0,0)" fill="#1e55b3" class="wordmark-text-0" data-fill-palette-color="primary" id="text-0"></path></svg></g></svg></g></svg></g></svg></g><g></g></svg></g></svg></g></svg></g><path d="M0 72.727L0 1 244.431 1 244.431 72.727 236.338 72.727 236.338 9.093 8.093 9.093 8.093 72.727 0 72.727M0 174.473L0 246.2 244.431 246.2 244.431 174.473 236.338 174.473 236.338 238.107 8.093 238.107 8.093 174.473 0 174.473" fill="#1e55b3" stroke="transparent" data-fill-palette-color="tertiary"></path></svg></g><defs></defs></svg><rect width="244.43135999999998" height="247.2" fill="none" stroke="none" visibility="hidden"></rect></g></svg></g></svg>